<svg width="80" height="80" viewBox="0 0 80 80" fill="none" stroke="none" xmlns="http://www.w3.org/2000/svg">
<path d="M45.8333 33.3333C46.7174 33.3333 47.5652 32.9822 48.1904 32.357C48.8155 31.7319 49.1667 30.8841 49.1667 30C49.1667 29.116 48.8155 28.2681 48.1904 27.643C47.5652 27.0179 46.7174 26.6667 45.8333 26.6667C44.9493 26.6667 44.1014 27.0179 43.4763 27.643C42.8512 28.2681 42.5 29.116 42.5 30C42.5 30.8841 42.8512 31.7319 43.4763 32.357C44.1014 32.9822 44.9493 33.3333 45.8333 33.3333ZM34.1667 33.3333C35.0507 33.3333 35.8986 32.9822 36.5237 32.357C37.1488 31.7319 37.5 30.8841 37.5 30C37.5 29.116 37.1488 28.2681 36.5237 27.643C35.8986 27.0179 35.0507 26.6667 34.1667 26.6667C33.2826 26.6667 32.4348 27.0179 31.8096 27.643C31.1845 28.2681 30.8333 29.116 30.8333 30C30.8333 30.8841 31.1845 31.7319 31.8096 32.357C32.4348 32.9822 33.2826 33.3333 34.1667 33.3333ZM51.6667 43.3333C52.5507 43.3333 53.3986 42.9822 54.0237 42.357C54.6488 41.7319 55 40.8841 55 40C55 39.116 54.6488 38.2681 54.0237 37.643C53.3986 37.0179 52.5507 36.6667 51.6667 36.6667C50.7826 36.6667 49.9348 37.0179 49.3096 37.643C48.6845 38.2681 48.3333 39.116 48.3333 40C48.3333 40.8841 48.6845 41.7319 49.3096 42.357C49.9348 42.9822 50.7826 43.3333 51.6667 43.3333ZM57.1667 32.5C57.8297 32.5 58.4656 32.2366 58.9344 31.7678C59.4033 31.2989 59.6667 30.6631 59.6667 30C59.6667 29.337 59.4033 28.7011 58.9344 28.2322C58.4656 27.7634 57.8297 27.5 57.1667 27.5C56.5036 27.5 55.8677 27.7634 55.3989 28.2322C54.9301 28.7011 54.6667 29.337 54.6667 30C54.6667 30.6631 54.9301 31.2989 55.3989 31.7678C55.8677 32.2366 56.5036 32.5 57.1667 32.5ZM57.1667 52.5C57.8297 52.5 58.4656 52.2366 58.9344 51.7678C59.4033 51.2989 59.6667 50.6631 59.6667 50C59.6667 49.337 59.4033 48.7011 58.9344 48.2322C58.4656 47.7634 57.8297 47.5 57.1667 47.5C56.5036 47.5 55.8677 47.7634 55.3989 48.2322C54.9301 48.7011 54.6667 49.337 54.6667 50C54.6667 50.6631 54.9301 51.2989 55.3989 51.7678C55.8677 52.2366 56.5036 52.5 57.1667 52.5ZM65.8333 42.5C66.4964 42.5 67.1323 42.2366 67.6011 41.7678C68.0699 41.2989 68.3333 40.6631 68.3333 40C68.3333 39.337 68.0699 38.7011 67.6011 38.2322C67.1323 37.7634 66.4964 37.5 65.8333 37.5C65.1703 37.5 64.5344 37.7634 64.0656 38.2322C63.5967 38.7011 63.3333 39.337 63.3333 40C63.3333 40.6631 63.5967 41.2989 64.0656 41.7678C64.5344 42.2366 65.1703 42.5 65.8333 42.5ZM22.6667 32.5C23.3297 32.5 23.9656 32.2366 24.4344 31.7678C24.9033 31.2989 25.1667 30.6631 25.1667 30C25.1667 29.337 24.9033 28.7011 24.4344 28.2322C23.9656 27.7634 23.3297 27.5 22.6667 27.5C22.0036 27.5 21.3677 27.7634 20.8989 28.2322C20.4301 28.7011 20.1667 29.337 20.1667 30C20.1667 30.6631 20.4301 31.2989 20.8989 31.7678C21.3677 32.2366 22.0036 32.5 22.6667 32.5ZM22.6667 52.5C23.3297 52.5 23.9656 52.2366 24.4344 51.7678C24.9033 51.2989 25.1667 50.6631 25.1667 50C25.1667 49.337 24.9033 48.7011 24.4344 48.2322C23.9656 47.7634 23.3297 47.5 22.6667 47.5C22.0036 47.5 21.3677 47.7634 20.8989 48.2322C20.4301 48.7011 20.1667 49.337 20.1667 50C20.1667 50.6631 20.4301 51.2989 20.8989 51.7678C21.3677 52.2366 22.0036 52.5 22.6667 52.5ZM14 42.5C14.663 42.5 15.2989 42.2366 15.7678 41.7678C16.2366 41.2989 16.5 40.6631 16.5 40C16.5 39.337 16.2366 38.7011 15.7678 38.2322C15.2989 37.7634 14.663 37.5 14 37.5C13.337 37.5 12.7011 37.7634 12.2322 38.2322C11.7634 38.7011 11.5 39.337 11.5 40C11.5 40.6631 11.7634 41.2989 12.2322 41.7678C12.7011 42.2366 13.337 42.5 14 42.5ZM53 19.8333C53.663 19.8333 54.2989 19.57 54.7678 19.1011C55.2366 18.6323 55.5 17.9964 55.5 17.3333C55.5 16.6703 55.2366 16.0344 54.7678 15.5656C54.2989 15.0967 53.663 14.8333 53 14.8333C52.337 14.8333 51.7011 15.0967 51.2322 15.5656C50.7634 16.0344 50.5 16.6703 50.5 17.3333C50.5 17.9964 50.7634 18.6323 51.2322 19.1011C51.7011 19.57 52.337 19.8333 53 19.8333ZM27 19.8333C27.663 19.8333 28.2989 19.57 28.7678 19.1011C29.2366 18.6323 29.5 17.9964 29.5 17.3333C29.5 16.6703 29.2366 16.0344 28.7678 15.5656C28.2989 15.0967 27.663 14.8333 27 14.8333C26.337 14.8333 25.7011 15.0967 25.2322 15.5656C24.7634 16.0344 24.5 16.6703 24.5 17.3333C24.5 17.9964 24.7634 18.6323 25.2322 19.1011C25.7011 19.57 26.337 19.8333 27 19.8333ZM40.1667 22.5C40.8297 22.5 41.4656 22.2366 41.9344 21.7678C42.4033 21.2989 42.6667 20.6631 42.6667 20C42.6667 19.337 42.4033 18.7011 41.9344 18.2322C41.4656 17.7634 40.8297 17.5 40.1667 17.5C39.5036 17.5 38.8677 17.7634 38.3989 18.2322C37.9301 18.7011 37.6667 19.337 37.6667 20C37.6667 20.6631 37.9301 21.2989 38.3989 21.7678C38.8677 22.2366 39.5036 22.5 40.1667 22.5ZM53 65.8333C53.663 65.8333 54.2989 65.57 54.7678 65.1011C55.2366 64.6323 55.5 63.9964 55.5 63.3333C55.5 62.6703 55.2366 62.0344 54.7678 61.5656C54.2989 61.0967 53.663 60.8333 53 60.8333C52.337 60.8333 51.7011 61.0967 51.2322 61.5656C50.7634 62.0344 50.5 62.6703 50.5 63.3333C50.5 63.9964 50.7634 64.6323 51.2322 65.1011C51.7011 65.57 52.337 65.8333 53 65.8333ZM27 65.8333C27.663 65.8333 28.2989 65.57 28.7678 65.1011C29.2366 64.6323 29.5 63.9964 29.5 63.3333C29.5 62.6703 29.2366 62.0344 28.7678 61.5656C28.2989 61.0967 27.663 60.8333 27 60.8333C26.337 60.8333 25.7011 61.0967 25.2322 61.5656C24.7634 62.0344 24.5 62.6703 24.5 63.3333C24.5 63.9964 24.7634 64.6323 25.2322 65.1011C25.7011 65.57 26.337 65.8333 27 65.8333ZM40.1667 63.1667C40.8297 63.1667 41.4656 62.9033 41.9344 62.4344C42.4033 61.9656 42.6667 61.3297 42.6667 60.6667C42.6667 60.0036 42.4033 59.3678 41.9344 58.8989C41.4656 58.4301 40.8297 58.1667 40.1667 58.1667C39.5036 58.1667 38.8677 58.4301 38.3989 58.8989C37.9301 59.3678 37.6667 60.0036 37.6667 60.6667C37.6667 61.3297 37.9301 61.9656 38.3989 62.4344C38.8677 62.9033 39.5036 63.1667 40.1667 63.1667ZM28.3333 43.3333C29.2174 43.3333 30.0652 42.9822 30.6904 42.357C31.3155 41.7319 31.6667 40.8841 31.6667 40C31.6667 39.116 31.3155 38.2681 30.6904 37.643C30.0652 37.0179 29.2174 36.6667 28.3333 36.6667C27.4493 36.6667 26.6014 37.0179 25.9763 37.643C25.3512 38.2681 25 39.116 25 40C25 40.8841 25.3512 41.7319 25.9763 42.357C26.6014 42.9822 27.4493 43.3333 28.3333 43.3333ZM34.1667 53.3333C35.0507 53.3333 35.8986 52.9822 36.5237 52.357C37.1488 51.7319 37.5 50.8841 37.5 50C37.5 49.116 37.1488 48.2681 36.5237 47.643C35.8986 47.0179 35.0507 46.6667 34.1667 46.6667C33.2826 46.6667 32.4348 47.0179 31.8096 47.643C31.1845 48.2681 30.8333 49.116 30.8333 50C30.8333 50.8841 31.1845 51.7319 31.8096 52.357C32.4348 52.9822 33.2826 53.3333 34.1667 53.3333ZM45.8333 53.3333C46.7174 53.3333 47.5652 52.9822 48.1904 52.357C48.8155 51.7319 49.1667 50.8841 49.1667 50C49.1667 49.116 48.8155 48.2681 48.1904 47.643C47.5652 47.0179 46.7174 46.6667 45.8333 46.6667C44.9493 46.6667 44.1014 47.0179 43.4763 47.643C42.8512 48.2681 42.5 49.116 42.5 50C42.5 50.8841 42.8512 51.7319 43.4763 52.357C44.1014 52.9822 44.9493 53.3333 45.8333 53.3333Z" stroke-miterlimit="10"/>
</svg>
